<svg xmlns="http://www.w3.org/2000/svg" viewBox="0 0 154.6 41.5"><defs><style>.cls-1{fill:#fff;}.cls-2{fill:#f16161;}.cls-3{fill:#67bdea;}.cls-4{fill:#8fcc88;}.cls-5{fill:#f9ee52;}</style></defs><g id="Layer_2" data-name="Layer 2"><g id="Layer_1-2" data-name="Layer 1"><path class="cls-1" d="M11.31,41.09a9.73,9.73,0,0,1-4-.81,6.3,6.3,0,0,1-2.93-2.77,11.08,11.08,0,0,1-1.11-5.4V17.85H0V14.68a4.35,4.35,0,0,0,2.65-1.76A15.18,15.18,0,0,0,4.8,9.08,18.19,18.19,0,0,0,6,4.51a10.8,10.8,0,0,1,1.71-.15,3.24,3.24,0,0,1,2.88,1.19,4.11,4.11,0,0,1,.8,2.23v5.45h6c0,.83-.05,1.65-.13,2.46a5.2,5.2,0,0,1-.7,2.16H11.46V32.48a2.76,2.76,0,0,0,.68,2.2,2.65,2.65,0,0,0,1.71.54,4.62,4.62,0,0,0,2.1-.54,5.55,5.55,0,0,0,1.69-1.27,2.41,2.41,0,0,1,.78,1.37,7.37,7.37,0,0,1,.2,1.38,4.08,4.08,0,0,1-.77,2.28,5.73,5.73,0,0,1-2.42,1.89A9.87,9.87,0,0,1,11.31,41.09Z"/><path class="cls-1" d="M21.63,40.72a4.33,4.33,0,0,1-.88-1.24,3.65,3.65,0,0,1-.31-1.56,2.93,2.93,0,0,0,2.15-.65,3,3,0,0,0,.65-2.2v-15a2.37,2.37,0,0,0-.73-1.95,4.38,4.38,0,0,0-2.69-.6V15.2a14.77,14.77,0,0,1,2.95-1.27,32.44,32.44,0,0,1,3.38-.88,13.48,13.48,0,0,1,2.59-.34,2,2,0,0,1,1.74.83A7.6,7.6,0,0,1,31,17.12,8.25,8.25,0,0,1,32.71,15a9.72,9.72,0,0,1,2.51-1.74,6.67,6.67,0,0,1,2.91-.68A4.29,4.29,0,0,1,41.6,13.8a4.81,4.81,0,0,1,1,3.22,5.59,5.59,0,0,1-1.14,3.63,4.32,4.32,0,0,1-6,.39,3.13,3.13,0,0,1-1-2.31,4.4,4.4,0,0,1,.15-1.3A10.19,10.19,0,0,0,33,18,5.64,5.64,0,0,0,31.49,19V34.6a4.32,4.32,0,0,0,.36,1.92,2.2,2.2,0,0,0,1.43,1.06,11.06,11.06,0,0,0,3.19.34,5.26,5.26,0,0,1-.21,1.56,3,3,0,0,1-.78,1.24Z"/><path class="cls-1" d="M51.62,41.09a9.1,9.1,0,0,1-6.31-2.16,7.07,7.07,0,0,1-2.41-5.52A7.15,7.15,0,0,1,45.11,28q2.2-2.07,6.82-2.07a18.7,18.7,0,0,1,3.16.28,8.66,8.66,0,0,1,2.7.86v-6.9a3.61,3.61,0,0,0-1.12-3A4.33,4.33,0,0,0,54,16.24a4.52,4.52,0,0,0-2.8.83,2.74,2.74,0,0,1,1.5,1.11,3.09,3.09,0,0,1,.47,1.64,3.35,3.35,0,0,1-1.22,2.72,4.48,4.48,0,0,1-3,1,4.37,4.37,0,0,1-3.17-1.16,4,4,0,0,1-1.19-2.94,5.48,5.48,0,0,1,1.19-3.34,8.65,8.65,0,0,1,3.71-2.62,17.32,17.32,0,0,1,6.51-1q10.44,0,10.43,8.25V34.45a2.76,2.76,0,0,0,2.39,3v1.66a4,4,0,0,1-2.29,1.48,10.56,10.56,0,0,1-3.11.5c-2.35,0-4-.82-5-2.44a10.28,10.28,0,0,1-2.75,1.68A10,10,0,0,1,51.62,41.09ZM55,36.88a5.07,5.07,0,0,0,1.5-.23,4.48,4.48,0,0,0,1.3-.6V31a5.07,5.07,0,0,0-1.32-.62,5.29,5.29,0,0,0-1.59-.26,3.44,3.44,0,0,0-2.33.86,3.34,3.34,0,0,0-1,2.67A3.11,3.11,0,0,0,52.5,36,3.43,3.43,0,0,0,55,36.88Z"/><path class="cls-1" d="M83.93,41.5a12.8,12.8,0,0,1-6.66-1.71,11.86,11.86,0,0,1-4.52-4.9,16.75,16.75,0,0,1-1.63-7.66,16.65,16.65,0,0,1,1.76-7.91,12.4,12.4,0,0,1,4.83-5,13.71,13.71,0,0,1,6.9-1.74,8.74,8.74,0,0,1,6.07,1.9,6,6,0,0,1,2.07,4.64,5.46,5.46,0,0,1-1.24,3.84,4.18,4.18,0,0,1-3.22,1.35,3.54,3.54,0,0,1-2.7-1.19,4.2,4.2,0,0,1-1.09-2.91,4,4,0,0,1,.45-2,4.24,4.24,0,0,1,1.11-1.3,2.59,2.59,0,0,0-1.5-.47,3.39,3.39,0,0,0-2,.78,5.75,5.75,0,0,0-1.73,2.75,17,17,0,0,0-.7,5.5c0,3.8.55,6.48,1.66,8a5.4,5.4,0,0,0,4.66,2.31,10.3,10.3,0,0,0,2.83-.41,7,7,0,0,0,2.41-1.2,4.57,4.57,0,0,1,.7,1.28,3.81,3.81,0,0,1,.29,1.32,3.14,3.14,0,0,1-1.17,2.2,8.78,8.78,0,0,1-3.14,1.84A12.51,12.51,0,0,1,83.93,41.5Z"/><path class="cls-1" d="M118.9,41.24A7.75,7.75,0,0,1,114.33,40a9.53,9.53,0,0,1-2.77-3.08,38.21,38.21,0,0,1-1.89-3.79,33.18,33.18,0,0,0-1.77-3.58,4.75,4.75,0,0,0-2.44-2.18v7.94a3,3,0,0,0,.65,2.15,3.16,3.16,0,0,0,2.26.65,3.37,3.37,0,0,1-.34,1.5,4.7,4.7,0,0,1-.91,1.25H95.71a3.5,3.5,0,0,1-1.25-2.75,3.07,3.07,0,0,0,2.21-.65,3,3,0,0,0,.65-2.15V7.21a2.61,2.61,0,0,0-.68-1.89,4,4,0,0,0-2.8-.7V2.54a20.58,20.58,0,0,1,3-1.24,35.48,35.48,0,0,1,3.45-.94,14.14,14.14,0,0,1,2.8-.36,2.49,2.49,0,0,1,1.79.54,2.68,2.68,0,0,1,.54,1.9V25.52l5.71-5.91a8.79,8.79,0,0,0,.65-.75,1.42,1.42,0,0,0,.34-.81c0-.48-.38-.93-1.12-1.35a4.45,4.45,0,0,0-2.15-.62,4.47,4.47,0,0,1,1.19-3.16h11.67a2.92,2.92,0,0,1,.81,1.45,8,8,0,0,1,.18,1.71,4,4,0,0,0-2.1.44,9.81,9.81,0,0,0-1.27,1l-7.89,7.78a7.58,7.58,0,0,1,3.22,1.25,9.06,9.06,0,0,1,2.43,3q1.62,2.85,2.52,4.48a12.61,12.61,0,0,0,1.71,2.47,5.46,5.46,0,0,0,2.16,1.29l0,1.25a2.24,2.24,0,0,1-1.45,1.69A7.85,7.85,0,0,1,118.9,41.24Z"/><rect class="cls-1" x="139.8" y="12.92" width="2.83" height="26.91" transform="translate(18.77 101.5) rotate(-42.11)"/><circle class="cls-2" cx="132.19" cy="16.39" r="4.36"/><circle class="cls-3" cx="150.24" cy="36.36" r="4.36"/><rect class="cls-1" x="127.76" y="24.96" width="26.91" height="2.83" transform="translate(26.98 113.48) rotate(-47.9)"/><circle class="cls-4" cx="150.24" cy="16.39" r="4.36"/><circle class="cls-5" cx="132.19" cy="36.36" r="4.36"/></g></g></svg>